<?xml version="1.0" encoding="UTF-8" standalone="no"?>
<svg
   xmlns:dc="http://purl.org/dc/elements/1.1/"
   xmlns:cc="http://creativecommons.org/ns#"
   xmlns:rdf="http://www.w3.org/1999/02/22-rdf-syntax-ns#"
   xmlns:svg="http://www.w3.org/2000/svg"
   xmlns="http://www.w3.org/2000/svg"
   xmlns:sodipodi="http://sodipodi.sourceforge.net/DTD/sodipodi-0.dtd"
   xmlns:inkscape="http://www.inkscape.org/namespaces/inkscape"
   height="100px"
   width="100px"
   fill="#FFFFFF"
   data-name="Layer 1"
   viewBox="0 0 100 100"
   x="0px"
   y="0px"
   version="1.1"
   id="svg10"
   sodipodi:docname="white.svg"
   inkscape:version="0.92.2 5c3e80d, 2017-08-06">
  <metadata
     id="metadata16">
    <rdf:RDF>
      <cc:Work
         rdf:about="">
        <dc:format>image/svg+xml</dc:format>
        <dc:type
           rdf:resource="http://purl.org/dc/dcmitype/StillImage" />
        <dc:title>flowers</dc:title>
      </cc:Work>
    </rdf:RDF>
  </metadata>
  <defs
     id="defs14" />
  <sodipodi:namedview
     pagecolor="#ffffff"
     bordercolor="#666666"
     borderopacity="1"
     objecttolerance="10"
     gridtolerance="10"
     guidetolerance="10"
     inkscape:pageopacity="0"
     inkscape:pageshadow="2"
     inkscape:window-width="1446"
     inkscape:window-height="754"
     id="namedview12"
     showgrid="false"
     inkscape:zoom="2.36"
     inkscape:cx="-31.355932"
     inkscape:cy="50"
     inkscape:window-x="0"
     inkscape:window-y="0"
     inkscape:window-maximized="0"
     inkscape:current-layer="svg10" />
  <title
     id="title2">flowers</title>
  <path
     d="M 49.999996,99.723784 A 18.248777,18.248777 0 0 1 31.766032,81.489813 V 18.499728 a 18.233971,18.233971 0 0 1 36.467936,0 V 81.489813 A 18.248777,18.248777 0 0 1 49.999996,99.723784 Z m 0,-96.4979673 A 15.288715,15.288715 0 0 0 34.726085,18.499728 v 62.990085 a 15.273921,15.273921 0 0 0 30.547824,0 V 18.499728 A 15.288715,15.288715 0 0 0 49.999996,3.2258167 Z"
     id="path4"
     style="fill:#5e72e4;stroke-width:1.4800303;fill-opacity:1"
     inkscape:connector-curvature="0" />
  <path
     d="M 77.213507,83.976583 A 18.085969,18.085969 0 0 1 68.155715,81.534544 L 13.6018,50.039506 A 18.278372,18.278372 0 0 1 6.9268641,25.130595 v 0 A 18.263577,18.263577 0 0 1 31.835771,18.455653 l 54.553922,31.495046 a 18.219163,18.219163 0 0 1 -4.440097,33.389486 18.751983,18.751983 0 0 1 -4.736089,0.636398 z M 22.777992,18.988472 a 15.569918,15.569918 0 0 0 -4.010882,0.532804 15.096308,15.096308 0 0 0 -9.2797875,7.089353 v 0 A 15.288715,15.288715 0 0 0 15.081831,47.464248 L 69.635743,78.974095 A 15.273921,15.273921 0 1 0 84.909655,52.525949 L 30.355748,21.016108 A 15.140708,15.140708 0 0 0 22.777992,18.988472 Z M 8.2144958,25.870611 Z"
     id="path6"
     style="fill:#5e72e4;stroke-width:1.4800303;fill-opacity:1"
     inkscape:connector-curvature="0" />
  <path
     d="M 22.778914,83.979185 A 18.944389,18.944389 0 0 1 17.998421,83.298366 18.15997,18.15997 0 0 1 6.9277926,74.817806 v 0 A 18.278372,18.278372 0 0 1 13.602725,49.908893 L 68.156648,18.458247 a 18.234703,18.234703 0 0 1 18.23397,31.583848 l -54.553916,31.49504 a 18.085969,18.085969 0 0 1 -9.057788,2.44205 z m 54.435514,-64.98812 a 15.140708,15.140708 0 0 0 -7.577757,2.027637 L 15.082763,52.528543 a 15.288715,15.288715 0 0 0 -5.5945175,20.85363 v 0 A 15.31831,15.31831 0 0 0 30.356671,78.976687 L 84.910582,47.466841 a 15.244315,15.244315 0 0 0 -3.685274,-27.942972 15.569918,15.569918 0 0 0 -4.01088,-0.532804 z"
     id="path8"
     style="fill:#5e72e4;stroke-width:1.4800303;fill-opacity:1"
     inkscape:connector-curvature="0" />
</svg>
