<?xml version="1.0" encoding="UTF-8"?>
<svg width="100px" height="100px" fill="#FFFFFF" data-name="Layer 1" version="1.1" viewBox="0 0 100 100" xmlns="http://www.w3.org/2000/svg" xmlns:cc="http://creativecommons.org/ns#" xmlns:dc="http://purl.org/dc/elements/1.1/" xmlns:rdf="http://www.w3.org/1999/02/22-rdf-syntax-ns#">
 <metadata>
  <rdf:RDF>
   <cc:Work rdf:about="">
    <dc:format>image/svg+xml</dc:format>
    <dc:type rdf:resource="http://purl.org/dc/dcmitype/StillImage"/>
    <dc:title>flowers</dc:title>
   </cc:Work>
  </rdf:RDF>
 </metadata>
 <title>flowers</title>
 <g fill="#5e72e4" stroke-width="1.48">
  <path d="m50 99.724a18.249 18.249 0 0 1-18.234-18.234v-62.99a18.234 18.234 0 0 1 36.468 0v62.99a18.249 18.249 0 0 1-18.234 18.234zm0-96.498a15.289 15.289 0 0 0-15.274 15.274v62.99a15.274 15.274 0 0 0 30.548 0v-62.99a15.289 15.289 0 0 0-15.274-15.274z"/>
  <path d="m77.214 83.977a18.086 18.086 0 0 1-9.0578-2.442l-54.554-31.495a18.278 18.278 0 0 1-6.6749-24.909 18.264 18.264 0 0 1 24.909-6.6749l54.554 31.495a18.219 18.219 0 0 1-4.4401 33.389 18.752 18.752 0 0 1-4.7361 0.6364zm-54.436-64.988a15.57 15.57 0 0 0-4.0109 0.5328 15.096 15.096 0 0 0-9.2798 7.0894 15.289 15.289 0 0 0 5.5945 20.854l54.554 31.51a15.274 15.274 0 1 0 15.274-26.448l-54.554-31.51a15.141 15.141 0 0 0-7.5778-2.0276z"/>
  <path d="m22.779 83.979a18.944 18.944 0 0 1-4.7805-0.68082 18.16 18.16 0 0 1-11.071-8.4806 18.278 18.278 0 0 1 6.6749-24.909l54.554-31.451a18.235 18.235 0 0 1 18.234 31.584l-54.554 31.495a18.086 18.086 0 0 1-9.0578 2.442zm54.436-64.988a15.141 15.141 0 0 0-7.5778 2.0276l-54.554 31.51a15.289 15.289 0 0 0-5.5945 20.854 15.318 15.318 0 0 0 20.868 5.5945l54.554-31.51a15.244 15.244 0 0 0-3.6853-27.943 15.57 15.57 0 0 0-4.0109-0.5328z"/>
 </g>
</svg>
